<svg xmlns="http://www.w3.org/2000/svg" width="1200" height="780" viewBox="0 0 1200 780">
  <rect width="1200" height="780" rx="44" fill="#fbf8f1"/>
  <text x="80" y="90" font-family="Inter, Arial" font-size="42" font-weight="800" fill="#1f211d">Prototype-overblik · Madro</text>
  <text x="80" y="130" font-family="Inter, Arial" font-size="20" fill="#706b62">De 9 HTML-sider og deres primære brugerflow</text>
  <defs><filter id="s" x="-20%" y="-20%" width="140%" height="140%"><feDropShadow dx="0" dy="12" stdDeviation="18" flood-color="#382d1e" flood-opacity=".12"/></filter></defs>
  <g font-family="Inter, Arial" font-size="18" fill="#1f211d" filter="url(#s)">
    <g><rect x="80" y="190" width="210" height="100" rx="24" fill="#fffdf8" stroke="#e8ddcc"/><text x="112" y="232" font-weight="800">index.html</text><text x="112" y="260" fill="#706b62">Forside</text></g>
    <g><rect x="360" y="190" width="210" height="100" rx="24" fill="#fffdf8" stroke="#e8ddcc"/><text x="392" y="232" font-weight="800">login.html</text><text x="392" y="260" fill="#706b62">Log ind</text></g>
    <g><rect x="640" y="190" width="230" height="100" rx="24" fill="#fffdf8" stroke="#e8ddcc"/><text x="672" y="232" font-weight="800">opret-bruger.html</text><text x="672" y="260" fill="#706b62">Opret bruger</text></g>
    <g><rect x="930" y="190" width="210" height="100" rx="24" fill="#e4ecd2" stroke="#7d8f5c"/><text x="962" y="232" font-weight="800">dashboard.html</text><text x="962" y="260" fill="#506337">Overblik</text></g>
    <g><rect x="80" y="420" width="210" height="118" rx="24" fill="#fffdf8" stroke="#e8ddcc"/><text x="112" y="462" font-weight="800">morgenmad.html</text><text x="112" y="490" fill="#706b62">Vafler</text></g>
    <g><rect x="360" y="420" width="210" height="118" rx="24" fill="#fffdf8" stroke="#e8ddcc"/><text x="392" y="462" font-weight="800">frokost.html</text><text x="392" y="490" fill="#706b62">Hønsesalat</text></g>
    <g><rect x="640" y="420" width="210" height="118" rx="24" fill="#fffdf8" stroke="#e8ddcc"/><text x="672" y="462" font-weight="800">aftensmad.html</text><text x="672" y="490" fill="#706b62">Bolognese</text></g>
    <g><rect x="930" y="420" width="210" height="118" rx="24" fill="#fffdf8" stroke="#e8ddcc"/><text x="962" y="462" font-weight="800">snack.html</text><text x="962" y="490" fill="#706b62">Hummus</text></g>
    <g><rect x="495" y="620" width="230" height="100" rx="24" fill="#506337"/><text x="527" y="662" font-weight="800" fill="#fff">opskrift.html</text><text x="527" y="690" fill="#e4ecd2">Dynamisk opskrift</text></g>
  </g>
  <g stroke="#7d8f5c" stroke-width="4" fill="none" stroke-linecap="round" stroke-linejoin="round" opacity=".9">
    <path d="M290 240H360"/><path d="M570 240H640"/><path d="M870 240H930"/>
    <path d="M1035 290V370H185V420"/><path d="M465 370V420"/><path d="M745 370V420"/><path d="M1035 370V420"/>
    <path d="M185 538V670H495"/><path d="M465 538V620"/><path d="M745 538V670H725"/><path d="M1035 538V670H725"/>
  </g>
</svg>