<svg xmlns="http://www.w3.org/2000/svg" viewBox="0 0 720 540"><rect width="720" height="540" rx="44" fill="#f4eddf"/><circle cx="112" cy="118" r="78" fill="#e4ecd2"/><circle cx="604" cy="430" r="86" fill="#efd9b5"/><ellipse cx="360" cy="312" rx="250" ry="150" fill="#fffdf8"/><g fill="none" stroke="#e5b45e" stroke-width="20" stroke-linecap="round"><path d="M208 302c80-78 208-80 304 2"/><path d="M206 342c92-68 218-64 310 0"/><path d="M232 263c80 50 176 50 256-2"/><path d="M260 381c54-34 150-34 204 0"/></g><g><circle cx="315" cy="294" r="31" fill="#b94f3d"/><circle cx="392" cy="325" r="38" fill="#c55b42"/><circle cx="455" cy="284" r="28" fill="#b94f3d"/><circle cx="270" cy="344" r="24" fill="#c55b42"/></g><g fill="#6f8b54"><circle cx="320" cy="254" r="12"/><circle cx="424" cy="262" r="13"/><circle cx="365" cy="372" r="11"/></g><path d="M516 192c40-24 74-62 92-112" stroke="#506337" stroke-width="16" fill="none" stroke-linecap="round"/></svg>