<svg xmlns="http://www.w3.org/2000/svg" viewBox="0 0 900 760"><rect width="900" height="760" rx="54" fill="#f4eddf"/><circle cx="695" cy="140" r="88" fill="#dfe8cd"/><circle cx="166" cy="618" r="112" fill="#edd8b4"/><g transform="translate(116 112)"><rect x="60" y="96" width="554" height="388" rx="54" fill="#fffdf8" stroke="#e4d6c2" stroke-width="5"/><ellipse cx="338" cy="288" rx="228" ry="166" fill="#f7f2e9"/><ellipse cx="338" cy="288" rx="184" ry="128" fill="#d87947"/><path d="M188 320c74-88 222-92 304 0" fill="none" stroke="#f2c06f" stroke-width="34" stroke-linecap="round"/><circle cx="274" cy="248" r="20" fill="#6f8b54"/><circle cx="392" cy="276" r="18" fill="#6f8b54"/><circle cx="340" cy="214" r="15" fill="#6f8b54"/><path d="M604 394c68-32 108-88 116-164" stroke="#506337" stroke-width="18" fill="none" stroke-linecap="round"/><path d="M653 262c20 24 51 36 82 28-9-32-33-56-68-64" fill="#7d8f5c"/></g><g opacity=".75"><circle cx="132" cy="142" r="14" fill="#506337"/><circle cx="772" cy="595" r="18" fill="#c27a42"/><circle cx="760" cy="650" r="9" fill="#506337"/></g></svg>