<svg xmlns="http://www.w3.org/2000/svg" viewBox="0 0 720 540"><rect width="720" height="540" rx="44" fill="#f4eddf"/><circle cx="572" cy="122" r="82" fill="#e4ecd2"/><circle cx="130" cy="422" r="92" fill="#efd9b5"/><ellipse cx="360" cy="310" rx="252" ry="148" fill="#fffdf8"/><ellipse cx="360" cy="302" rx="202" ry="104" fill="#ead4a8"/><g transform="translate(202 185)"><path d="M74 118c56-69 170-86 252-14 35 31 31 70-14 89-76 33-236 31-281-6-24-20-20-44 43-69Z" fill="#f8efdf"/><path d="M82 117c68 28 165 29 249-1" fill="none" stroke="#d8bb83" stroke-width="16" stroke-linecap="round"/><circle cx="116" cy="116" r="14" fill="#6f8b54"/><circle cx="188" cy="96" r="12" fill="#6f8b54"/><circle cx="266" cy="121" r="13" fill="#6f8b54"/><path d="M106 69c-12-36 16-62 51-74 4 38-7 65-51 74Z" fill="#7d8f5c"/><path d="M262 73c3-39 33-58 70-59-8 38-26 60-70 59Z" fill="#7d8f5c"/><path d="M163 154c52 18 96 18 145 0" stroke="#c27a42" stroke-width="10" stroke-linecap="round"/></g></svg>