<svg xmlns="http://www.w3.org/2000/svg" viewBox="0 0 720 540"><rect width="720" height="540" rx="44" fill="#f4eddf"/><circle cx="134" cy="110" r="62" fill="#e4ecd2"/><circle cx="606" cy="438" r="88" fill="#efd9b5"/><ellipse cx="360" cy="308" rx="244" ry="144" fill="#fffdf8"/><g transform="translate(172 142)"><rect x="70" y="54" width="250" height="230" rx="36" fill="#d99545" transform="rotate(-8 195 169)"/><g stroke="#bd7335" stroke-width="10" opacity=".45"><path d="M130 58l-16 218"/><path d="M192 52l-15 230"/><path d="M254 62l-14 218"/><path d="M78 114l250-18"/><path d="M73 178l254-18"/><path d="M82 240l244-18"/></g><rect x="170" y="20" width="236" height="216" rx="34" fill="#e9aa55" transform="rotate(10 288 128)"/><g stroke="#c8843f" stroke-width="9" opacity=".45"><path d="M221 37l-36 198"/><path d="M279 48l-36 196"/><path d="M338 59l-34 184"/><path d="M183 87l220 40"/><path d="M173 145l222 40"/><path d="M165 204l204 37"/></g><circle cx="392" cy="104" r="18" fill="#b74742"/><circle cx="422" cy="147" r="17" fill="#b74742"/><circle cx="372" cy="159" r="13" fill="#b74742"/><path d="M410 111c24-22 42-44 54-66" stroke="#506337" stroke-width="11" fill="none" stroke-linecap="round"/></g></svg>